<svg width="20" height="21" viewBox="0 0 20 21" fill="none" xmlns="http://www.w3.org/2000/svg">
<path fill-rule="evenodd" clip-rule="evenodd" d="M10.4712 5.99851C11.0614 5.39738 11.8641 5.05769 12.7034 5.05769H14.2482C14.5669 5.05769 14.8252 5.31599 14.8252 5.63462V7.73252C14.8252 8.05114 14.5669 8.30944 14.2482 8.30944L12.7654 8.30944V8.72902L14.2482 8.72902C14.4255 8.72902 14.5929 8.81047 14.7022 8.94993C14.8116 9.08938 14.8508 9.27136 14.8085 9.44347L14.2936 11.5414C14.2303 11.7994 13.999 11.9808 13.7333 11.9808H12.7654V15.0111C12.7654 15.3297 12.5071 15.588 12.1885 15.588H10.1287C9.81011 15.588 9.55181 15.3297 9.55181 15.0111L9.55181 11.9808H8.58391C8.26529 11.9808 8.00699 11.7225 8.00699 11.4038V9.30594C8.00699 8.98732 8.26529 8.72902 8.58391 8.72902H9.55181V8.25699C9.55181 7.41187 9.88133 6.59927 10.4712 5.99851ZM12.7034 6.21154C12.177 6.21154 11.67 6.42442 11.2945 6.80688C10.9187 7.1897 10.7057 7.71112 10.7057 8.25699V9.30594C10.7057 9.62457 10.4474 9.88287 10.1287 9.88287H9.16084V10.8269L10.1287 10.8269C10.4474 10.8269 10.7057 11.0852 10.7057 11.4038V14.4341H11.6116V11.4038C11.6116 11.0852 11.8699 10.8269 12.1885 10.8269H13.2809L13.5126 9.88287L12.1885 9.88287C11.8699 9.88287 11.6116 9.62457 11.6116 9.30594V8.25699C11.6116 7.96827 11.7241 7.68928 11.9276 7.48195C12.1316 7.27426 12.4104 7.15559 12.7034 7.15559L13.6713 7.15559V6.21154H12.7034Z" fill="#2E3D98"/>
<path fill-rule="evenodd" clip-rule="evenodd" d="M4.80769 3.90385C4.17044 3.90385 3.65385 4.42044 3.65385 5.05769L3.65385 15.4423C3.65385 16.0796 4.17044 16.5962 4.80769 16.5962H15.1923C15.8296 16.5962 16.3462 16.0796 16.3462 15.4423V5.05769C16.3462 4.42044 15.8296 3.90385 15.1923 3.90385L4.80769 3.90385ZM2.5 5.05769C2.5 3.78319 3.53319 2.75 4.80769 2.75L15.1923 2.75C16.4668 2.75 17.5 3.78319 17.5 5.05769V15.4423C17.5 16.7168 16.4668 17.75 15.1923 17.75H4.80769C3.53319 17.75 2.5 16.7168 2.5 15.4423L2.5 5.05769Z" fill="#2E3D98"/>
</svg>
