<svg width="20" height="21" viewBox="0 0 20 21" fill="none" xmlns="http://www.w3.org/2000/svg">
<path fill-rule="evenodd" clip-rule="evenodd" d="M4.80769 3.90385C4.17044 3.90385 3.65385 4.42044 3.65385 5.05769L3.65385 15.4423C3.65385 16.0796 4.17044 16.5962 4.80769 16.5962H15.1923C15.8296 16.5962 16.3462 16.0796 16.3462 15.4423V5.05769C16.3462 4.42044 15.8296 3.90385 15.1923 3.90385L4.80769 3.90385ZM2.5 5.05769C2.5 3.78319 3.53319 2.75 4.80769 2.75L15.1923 2.75C16.4668 2.75 17.5 3.78319 17.5 5.05769V15.4423C17.5 16.7168 16.4668 17.75 15.1923 17.75H4.80769C3.53319 17.75 2.5 16.7168 2.5 15.4423L2.5 5.05769ZM6.53846 6.21154C6.85709 6.21154 7.11538 6.46984 7.11538 6.78846V6.79712C7.11538 7.11574 6.85709 7.37404 6.53846 7.37404C6.21984 7.37404 5.96154 7.11574 5.96154 6.79712V6.78846C5.96154 6.46984 6.21984 6.21154 6.53846 6.21154ZM6.53846 8.80769C6.85709 8.80769 7.11538 9.06599 7.11538 9.38461L7.11538 13.7115C7.11538 14.0302 6.85709 14.2885 6.53846 14.2885C6.21984 14.2885 5.96154 14.0302 5.96154 13.7115L5.96154 9.38461C5.96154 9.06599 6.21984 8.80769 6.53846 8.80769ZM10.5259 9.14717C10.4354 8.94698 10.234 8.80769 10 8.80769C9.68137 8.80769 9.42308 9.06599 9.42308 9.38461L9.42308 13.7115C9.42308 14.0302 9.68137 14.2885 10 14.2885C10.3186 14.2885 10.5769 14.0302 10.5769 13.7115V11.1154C10.5769 10.8094 10.6985 10.5159 10.9149 10.2995C11.1313 10.0831 11.4248 9.96154 11.7308 9.96154C12.0368 9.96154 12.3303 10.0831 12.5467 10.2995C12.763 10.5159 12.8846 10.8094 12.8846 11.1154V13.7115C12.8846 14.0302 13.1429 14.2885 13.4615 14.2885C13.7802 14.2885 14.0385 14.0302 14.0385 13.7115V11.1154C14.0385 10.5033 13.7953 9.91638 13.3626 9.4836C12.9298 9.05082 12.3428 8.80769 11.7308 8.80769C11.3021 8.80769 10.8857 8.92698 10.5259 9.14717Z" fill="#2E3D98"/>
</svg>
