<svg width="20" height="21" viewBox="0 0 20 21" fill="none" xmlns="http://www.w3.org/2000/svg">
<path fill-rule="evenodd" clip-rule="evenodd" d="M17.3045 3.72616C17.4663 3.86875 17.5351 4.08967 17.4828 4.29889L14.4058 16.6066C14.3554 16.8082 14.2004 16.9671 14.0001 17.0226C13.7998 17.0781 13.5852 17.0216 13.4382 16.8746L10.0624 13.4988L8.15384 16.0436C8.02509 16.2152 7.8117 16.3013 7.59989 16.2669C7.38808 16.2325 7.21284 16.0834 7.14499 15.8798L5.6821 11.4912L2.81892 10.0596C2.61482 9.95754 2.49004 9.74477 2.50062 9.51682C2.5112 9.28888 2.65515 9.08858 2.86782 9.00588L16.714 3.62127C16.9149 3.54311 17.1427 3.58357 17.3045 3.72616ZM10.415 12.2196C10.4107 12.2152 10.4064 12.2108 10.4019 12.2065L10.0467 11.8513L12.7156 9.18229C12.9409 8.95699 12.9409 8.5917 12.7156 8.3664C12.4903 8.14109 12.125 8.14109 11.8997 8.3664L8.82282 11.4433C8.59752 11.6686 8.59752 12.0339 8.82282 12.2592L9.23824 12.6746L7.89142 14.4704L6.70116 10.8996C6.65278 10.7544 6.54871 10.6344 6.41185 10.566L4.49896 9.60957L16.0929 5.10081L13.5336 15.3382L10.415 12.2196Z" fill="#2E3D98"/>
</svg>
