<svg width="20" height="21" viewBox="0 0 20 21" fill="none" xmlns="http://www.w3.org/2000/svg">
<path fill-rule="evenodd" clip-rule="evenodd" d="M15.0124 5.10849C15.0893 5.08712 15.1645 5.06651 15.2384 5.04627C15.7425 4.9082 16.1831 4.78754 16.6465 4.56352C16.7491 4.5074 16.8693 4.48204 16.9931 4.49717C17.2825 4.53254 17.5 4.77827 17.5 5.06982V5.07052C17.5 5.12383 17.4927 5.17601 17.4787 5.22587C17.3496 5.73093 17.0045 6.43438 16.7273 6.97837C16.6571 7.1163 16.5918 7.24266 16.5317 7.35887C16.4628 7.49231 16.4007 7.61237 16.346 7.7212C16.2988 7.81497 16.2641 7.88676 16.2415 7.9377C16.2382 8.83708 16.1156 9.73218 15.8766 10.5995L15.8758 10.6023C15.0374 13.587 12.8438 15.5876 10.1845 16.3601L10.1844 16.3601C7.842 17.0401 5.18829 16.5637 2.80088 15.2624C2.56562 15.1342 2.4496 14.8609 2.5208 14.6026C2.592 14.3442 2.83168 14.169 3.09942 14.1794C4.1665 14.2209 5.1034 13.9306 6.04516 13.4182C5.06759 12.8479 4.3809 12.1748 3.92095 11.4481C3.32451 10.5057 3.13641 9.51613 3.14514 8.63183C3.15383 7.75198 3.35697 6.96684 3.55337 6.40742C3.65214 6.1261 3.75074 5.89752 3.82571 5.73731C3.86325 5.65709 3.89501 5.5937 3.91811 5.54908C3.92967 5.52675 3.93907 5.50909 3.94597 5.49634L3.95439 5.48092L3.95711 5.47601L3.95808 5.47427L3.95847 5.47358C3.95863 5.47328 3.95879 5.47301 4.46159 5.7559L3.95879 5.47301C4.05549 5.30113 4.23329 5.19056 4.43021 5.17983C4.62713 5.1691 4.81588 5.25971 4.93069 5.42006C6.00343 6.91845 7.6027 7.82296 9.42311 7.938V7.83658C9.40544 6.42014 10.2924 5.19936 11.6116 4.70538C12.7314 4.28606 14.0348 4.25094 15.0124 5.10849ZM4.61901 6.85647C4.45782 7.33194 4.30567 7.96042 4.29893 8.64323C4.29191 9.35409 4.44209 10.114 4.89592 10.831C5.34892 11.5467 6.13155 12.2627 7.46137 12.8424C7.65489 12.9268 7.78688 13.1101 7.80549 13.3204C7.82409 13.5307 7.72635 13.7344 7.55065 13.8514C6.79678 14.3536 6.02043 14.7799 5.17694 15.0453C6.7995 15.582 8.42572 15.6692 9.86273 15.252C12.1599 14.5847 14.0395 12.8709 14.7646 10.2917C14.9834 9.49684 15.0921 8.67568 15.0876 7.85124C15.0869 7.7376 15.1198 7.64158 15.129 7.61453L15.1298 7.61211C15.145 7.56741 15.1636 7.52249 15.181 7.48277C15.2163 7.40223 15.2636 7.30528 15.3151 7.20288C15.3699 7.09402 15.4385 6.96111 15.5119 6.819C15.5728 6.70103 15.637 6.57672 15.6992 6.45457C15.7662 6.32317 15.8323 6.19132 15.8956 6.06188C15.7516 6.10335 15.6099 6.14202 15.4717 6.17975C15.3125 6.22322 15.1578 6.26544 15.0095 6.30923C14.7948 6.37258 14.5628 6.30604 14.4144 6.13853C13.8597 5.51254 13.0027 5.41654 12.0162 5.78595C11.1254 6.11949 10.5645 6.92111 10.5769 7.8249L10.577 7.83281H10.577V8.52512C10.577 8.838 10.3276 9.09385 10.0148 9.10185C7.91213 9.15563 6.00295 8.33491 4.61901 6.85647Z" fill="#2E3D98"/>
</svg>
