<svg width="20" height="21" viewBox="0 0 20 21" fill="none" xmlns="http://www.w3.org/2000/svg">
<path fill-rule="evenodd" clip-rule="evenodd" d="M14.1196 5.42058C12.9442 4.41797 11.4432 3.8788 9.89842 3.90425C8.35365 3.92971 6.87127 4.51804 5.72947 5.55883C4.58766 6.59963 3.86494 8.02134 3.69692 9.55715C3.5289 11.093 3.92713 12.6373 4.81689 13.9004C4.93272 14.0648 4.95452 14.2777 4.87441 14.4622L4.03384 16.3981L6.8586 15.8946C6.97915 15.8731 7.10341 15.8906 7.21338 15.9444C8.60097 16.6238 10.1888 16.7735 11.6789 16.3653C13.169 15.9571 14.4589 15.0192 15.3065 13.7275C16.1542 12.4358 16.5013 10.8792 16.2828 9.34976C16.0643 7.82031 15.2951 6.42319 14.1196 5.42058ZM9.87942 2.75102C11.7051 2.72094 13.4789 3.35814 14.8681 4.54304C16.2573 5.72794 17.1663 7.37909 17.4246 9.18662C17.6829 10.9941 17.2726 12.8338 16.2708 14.3603C15.2691 15.8869 13.7446 16.9953 11.9836 17.4777C10.2843 17.9432 8.4775 17.7948 6.87953 17.0625L3.17788 17.7222C2.9687 17.7594 2.75597 17.6787 2.62423 17.512C2.49249 17.3453 2.46309 17.1196 2.54772 16.9247L3.69082 14.2921C2.76832 12.8527 2.36372 11.1378 2.55037 9.43172C2.74893 7.61666 3.60307 5.93646 4.95247 4.70643C6.30187 3.4764 8.05378 2.7811 9.87942 2.75102ZM7.39509 7.24762C7.57534 7.06737 7.81981 6.9661 8.07473 6.9661C8.32964 6.9661 8.57412 7.06737 8.75437 7.24762C8.93462 7.42787 9.03589 7.67235 9.03589 7.92726V8.69619C9.03589 8.9511 8.93462 9.19558 8.75437 9.37583C8.65204 9.47817 8.529 9.55504 8.39511 9.60238C8.54696 10.1285 8.83001 10.6129 9.22412 11.007C9.61823 11.4011 10.1026 11.6841 10.6287 11.836C10.6761 11.7021 10.7529 11.5791 10.8553 11.4767C11.0355 11.2965 11.28 11.1952 11.5349 11.1952H12.3038C12.5587 11.1952 12.8032 11.2965 12.9835 11.4767C13.1637 11.657 13.265 11.9014 13.265 12.1564C13.265 12.4113 13.1637 12.6558 12.9835 12.836C12.8032 13.0163 12.5587 13.1175 12.3038 13.1175H11.5349C10.3623 13.1175 9.23771 12.6517 8.40855 11.8225C7.57939 10.9934 7.11357 9.8688 7.11357 8.69619V7.92726C7.11357 7.67235 7.21483 7.42787 7.39509 7.24762Z" fill="#2E3D98"/>
</svg>
