<svg width="132" height="49" viewBox="0 0 132 49" fill="none" xmlns="http://www.w3.org/2000/svg">
<rect x="0.5" y="1.45703" width="131" height="47" rx="7.5" fill="white"/>
<path d="M22.9189 31.6538C21.2256 29.2234 20.2487 25.216 21.7818 22.5747C22.1662 21.8975 22.7194 21.3307 23.388 20.9289C24.0565 20.5271 24.8178 20.304 25.5982 20.2812H25.6451C26.2854 20.3193 26.9127 20.4774 27.4941 20.7472C27.8246 20.9056 28.1791 21.0084 28.5433 21.0516C28.8949 21.0043 29.2371 20.9027 29.5573 20.7504C30.2242 20.4458 30.9422 20.2677 31.6746 20.2254C31.7742 20.2254 31.87 20.23 31.969 20.2397C32.6346 20.2614 33.286 20.4369 33.8719 20.7523C34.4578 21.0678 34.9622 21.5146 35.3451 22.0575C35.3563 22.0738 35.364 22.0921 35.3679 22.1114C35.3718 22.1307 35.3718 22.1506 35.3679 22.1699C35.3639 22.1892 35.3561 22.2075 35.345 22.2238C35.3338 22.24 35.3195 22.2539 35.3028 22.2645L35.2885 22.2736C34.733 22.6153 34.273 23.0911 33.9508 23.6569C33.6287 24.2227 33.4549 24.8602 33.4454 25.5107C33.4489 26.2455 33.6682 26.9633 34.0763 27.5754C34.4844 28.1876 35.0633 28.6673 35.7418 28.9554L35.7528 28.9599C35.7861 28.9751 35.8126 29.0019 35.8272 29.0354C35.8417 29.0688 35.8433 29.1065 35.8316 29.141L35.8264 29.1572C35.5342 30.0586 35.1137 30.9136 34.578 31.696C33.8616 32.7344 33.0501 33.9109 31.728 33.9356C31.227 33.9352 30.7331 33.8176 30.2861 33.5923C29.818 33.3602 29.3032 33.237 28.7803 33.2321C28.232 33.2367 27.6916 33.3638 27.1991 33.604C26.7814 33.8073 26.3278 33.9273 25.864 33.957H25.7988C24.622 33.9596 23.7656 32.8687 22.9189 31.6538ZM28.3896 20.3325C28.3553 20.3299 28.323 20.3155 28.2982 20.2919C28.2734 20.2682 28.2576 20.2367 28.2535 20.2027C28.2152 19.6853 28.2825 19.1656 28.4513 18.6748C28.6201 18.1841 28.8869 17.7325 29.2356 17.3472C29.9354 16.552 30.9146 16.0545 31.9716 15.9571C32.0088 15.9557 32.0453 15.9682 32.0737 15.9923C32.1022 16.0163 32.1206 16.0501 32.1253 16.0869C32.2075 17.1548 31.8619 18.2116 31.164 19.0261C30.8526 19.4156 30.4613 19.7343 30.0163 19.9608C29.5713 20.1874 29.0828 20.3165 28.5837 20.3396C28.5196 20.3396 28.4555 20.3372 28.3915 20.3325H28.3896Z" fill="#1F212B"/>
<path d="M57.6775 33.7052H55.7442L54.6852 30.4542H51.0042L49.9955 33.7052H48.1133L51.7602 22.6374H54.0127L57.6775 33.7052ZM54.366 29.0903L53.4083 26.2003C53.307 25.905 53.1171 25.2098 52.8371 24.1153H52.803C52.6915 24.586 52.5119 25.2813 52.265 26.2003L51.3243 29.0903H54.366Z" fill="#1F212B"/>
<path d="M67.056 29.6168C67.056 30.9741 66.6806 32.0469 65.9297 32.8345C65.2572 33.5356 64.4221 33.8857 63.4252 33.8857C62.3492 33.8857 61.5763 33.5081 61.1055 32.753H61.0714V36.957H59.2565V28.3518C59.2565 27.4986 59.2335 26.6228 59.1893 25.7246H60.7854L60.8867 26.9896H60.9208C61.526 26.0365 62.4446 25.5608 63.6772 25.5608C64.6409 25.5608 65.4454 25.9325 66.0889 26.6769C66.7342 27.422 67.056 28.4017 67.056 29.6168ZM65.207 29.6817C65.207 28.9049 65.0282 28.2645 64.669 27.7605C64.2765 27.2349 63.7496 26.9721 63.089 26.9721C62.6412 26.9721 62.2343 27.1185 61.8708 27.4071C61.5064 27.6982 61.2681 28.0782 61.1566 28.5489C61.1004 28.7685 61.0723 28.9481 61.0723 29.0895V30.4202C61.0723 31.0007 61.2545 31.4905 61.6188 31.8906C61.9832 32.2906 62.4565 32.4902 63.0388 32.4902C63.7223 32.4902 64.2544 32.2324 64.6349 31.7184C65.0163 31.2036 65.207 30.525 65.207 29.6817Z" fill="#1F212B"/>
<path d="M76.4517 29.6168C76.4517 30.9741 76.0763 32.0469 75.3246 32.8345C74.653 33.5356 73.8179 33.8857 72.821 33.8857C71.745 33.8857 70.972 33.5081 70.5021 32.753H70.468V36.957H68.6531V28.3518C68.6531 27.4986 68.6301 26.6228 68.5858 25.7246H70.182L70.2833 26.9896H70.3174C70.9218 26.0365 71.8403 25.5608 73.0738 25.5608C74.0366 25.5608 74.8411 25.9325 75.4864 26.6769C76.1291 27.422 76.4517 28.4017 76.4517 29.6168ZM74.6027 29.6817C74.6027 28.9049 74.4231 28.2645 74.0639 27.7605C73.6714 27.2349 73.1462 26.9721 72.4847 26.9721C72.0361 26.9721 71.6301 27.1185 71.2657 27.4071C70.9014 27.6982 70.6638 28.0782 70.5523 28.5489C70.497 28.7685 70.468 28.9481 70.468 29.0895V30.4202C70.468 31.0007 70.6502 31.4905 71.0129 31.8906C71.3772 32.2898 71.8505 32.4902 72.4345 32.4902C73.1181 32.4902 73.6502 32.2324 74.0307 31.7184C74.4121 31.2036 74.6027 30.525 74.6027 29.6817Z" fill="#1F212B"/>
<path d="M86.9566 30.6017C86.9566 31.5431 86.622 32.3091 85.9503 32.9004C85.2123 33.5466 84.1848 33.8693 82.8644 33.8693C81.6454 33.8693 80.6681 33.6397 79.9283 33.1798L80.3489 31.702C81.1457 32.1727 82.02 32.4089 82.9725 32.4089C83.6561 32.4089 84.1882 32.2575 84.5704 31.9565C84.9509 31.6554 85.1408 31.2512 85.1408 30.7472C85.1408 30.2981 84.9841 29.9197 84.67 29.6128C84.3576 29.306 83.8357 29.0207 83.107 28.7571C81.1236 28.0343 80.1327 26.9756 80.1327 25.5834C80.1327 24.6736 80.48 23.9276 81.1755 23.3471C81.8684 22.7658 82.7929 22.4755 83.949 22.4755C84.9799 22.4755 85.8363 22.651 86.5199 23.0011L86.0661 24.4466C85.4277 24.1072 84.7058 23.9376 83.8979 23.9376C83.2594 23.9376 82.7606 24.0914 82.403 24.3975C82.1008 24.6711 81.9493 25.0046 81.9493 25.3996C81.9493 25.8371 82.1221 26.1989 82.4694 26.4833C82.7716 26.7461 83.3207 27.0305 84.1175 27.3374C85.0922 27.7208 85.8082 28.1691 86.2687 28.683C86.7276 29.1953 86.9566 29.8365 86.9566 30.6017Z" fill="#1F212B"/>
<path d="M92.9574 27.0548H90.9568V30.9295C90.9568 31.915 91.3093 32.4074 92.0158 32.4074C92.3402 32.4074 92.6092 32.3799 92.822 32.325L92.8722 33.6715C92.5147 33.8021 92.0439 33.8678 91.4608 33.8678C90.744 33.8678 90.1839 33.654 89.7795 33.2274C89.3768 32.7999 89.1742 32.083 89.1742 31.0759V27.0531H87.9824V25.7225H89.1742V24.2613L90.9568 23.7356V25.7225H92.9574V27.0548Z" fill="#1F212B"/>
<path d="M101.983 29.6495C101.983 30.8762 101.624 31.8834 100.907 32.6709C100.156 33.4818 99.158 33.886 97.9143 33.886C96.7157 33.886 95.7614 33.4976 95.0497 32.7208C94.338 31.9441 93.9822 30.9635 93.9822 29.7817C93.9822 28.5451 94.3483 27.5321 95.0829 26.7445C95.8159 25.9561 96.8051 25.5619 98.0488 25.5619C99.2474 25.5619 100.212 25.9503 100.94 26.7279C101.636 27.4822 101.983 28.4561 101.983 29.6495ZM100.1 29.7069C100.1 28.9709 99.9395 28.3396 99.6134 27.8132C99.2329 27.1762 98.689 26.8585 97.9841 26.8585C97.2545 26.8585 96.7004 27.177 96.3198 27.8132C95.9938 28.3405 95.8329 28.9817 95.8329 29.7402C95.8329 30.4762 95.9938 31.1074 96.3198 31.633C96.7123 32.2701 97.2605 32.5878 97.9679 32.5878C98.6609 32.5878 99.2048 32.2634 99.5973 31.6164C99.9318 31.08 100.1 30.4421 100.1 29.7069Z" fill="#1F212B"/>
<path d="M107.883 27.284C107.703 27.2516 107.512 27.2349 107.311 27.2349C106.672 27.2349 106.179 27.4703 105.831 27.9418C105.529 28.3577 105.377 28.8833 105.377 29.5178V33.7052H103.563L103.58 28.2379C103.58 27.3181 103.557 26.4806 103.512 25.7255H105.093L105.16 27.2524H105.21C105.401 26.7276 105.704 26.3051 106.117 25.9883C106.522 25.703 106.958 25.5608 107.429 25.5608C107.597 25.5608 107.748 25.5724 107.883 25.5932V27.284Z" fill="#1F212B"/>
<path d="M116 29.3375C116 29.6552 115.979 29.923 115.934 30.1417H110.489C110.51 30.9301 110.773 31.5331 111.279 31.9489C111.738 32.3207 112.331 32.507 113.06 32.507C113.866 32.507 114.601 32.3814 115.263 32.1294L115.547 33.3603C114.774 33.6896 113.862 33.8534 112.809 33.8534C111.542 33.8534 110.548 33.4892 109.824 32.7615C109.102 32.0338 108.74 31.0566 108.74 29.8307C108.74 28.6273 109.076 27.6251 109.75 26.8259C110.455 25.9726 111.407 25.546 112.606 25.546C113.783 25.546 114.675 25.9726 115.28 26.8259C115.759 27.5037 116 28.342 116 29.3375ZM114.269 28.8776C114.281 28.352 114.163 27.8979 113.917 27.5145C113.603 27.0213 113.12 26.7752 112.471 26.7752C111.877 26.7752 111.395 27.0155 111.026 27.4979C110.724 27.8813 110.544 28.3412 110.489 28.8768L114.269 28.8776Z" fill="#1F212B"/>
<path d="M53.766 15.8284C53.766 16.8073 53.4655 17.5441 52.8653 18.039C52.3094 18.4955 51.5194 18.7242 50.4962 18.7242C49.9888 18.7242 49.5547 18.7026 49.1912 18.6594V13.311C49.6653 13.2361 50.1761 13.1979 50.7277 13.1979C51.7025 13.1979 52.4371 13.4049 52.9326 13.8191C53.4876 14.2873 53.766 14.9568 53.766 15.8284ZM52.8253 15.8525C52.8253 15.218 52.6533 14.7314 52.3094 14.3921C51.9655 14.0536 51.4632 13.884 50.8018 13.884C50.5209 13.884 50.2817 13.9023 50.0833 13.9405V18.0065C50.1931 18.0232 50.394 18.0306 50.686 18.0306C51.3687 18.0306 51.8957 17.8452 52.2669 17.4743C52.638 17.1033 52.8253 16.5628 52.8253 15.8525Z" fill="#1F212B"/>
<path d="M58.7536 16.6838C58.7536 17.2868 58.5774 17.7808 58.225 18.1684C57.8555 18.5667 57.366 18.7655 56.7548 18.7655C56.1657 18.7655 55.6967 18.575 55.3468 18.1925C54.9978 17.8107 54.8232 17.3292 54.8232 16.7487C54.8232 16.1416 55.0029 15.6434 55.3638 15.2567C55.7247 14.87 56.21 14.6762 56.8212 14.6762C57.4103 14.6762 57.8836 14.8667 58.242 15.2484C58.5825 15.6193 58.7536 16.0984 58.7536 16.6838ZM57.8283 16.7121C57.8283 16.3503 57.7483 16.0401 57.5891 15.7815C57.4018 15.4688 57.1353 15.3124 56.7889 15.3124C56.4305 15.3124 56.1581 15.4688 55.9708 15.7815C55.8107 16.0401 55.7316 16.3553 55.7316 16.7279C55.7316 17.0897 55.8116 17.3999 55.9708 17.6585C56.164 17.9713 56.433 18.1276 56.7803 18.1276C57.1209 18.1276 57.3882 17.9688 57.5806 17.6502C57.7457 17.3866 57.8283 17.0739 57.8283 16.7121Z" fill="#1F212B"/>
<path d="M65.4412 14.7559L64.1856 18.6763H63.3684L62.8482 16.9739C62.7163 16.5489 62.609 16.1265 62.5256 15.7073H62.5094C62.4319 16.1381 62.3247 16.5597 62.1868 16.9739L61.6343 18.6763H60.8077L59.627 14.7559H60.5438L60.9975 16.6196C61.1073 17.0604 61.1976 17.4804 61.2699 17.8779H61.2861C61.3525 17.5503 61.4623 17.1328 61.6173 16.6279L62.1868 14.7567H62.9138L63.4594 16.588C63.5914 17.0346 63.6986 17.4646 63.7812 17.8788H63.8059C63.8664 17.4754 63.9574 17.0454 64.0783 16.588L64.5653 14.7567L65.4412 14.7559Z" fill="#1F212B"/>
<path d="M70.0663 18.6764H69.1741V16.4309C69.1741 15.739 68.9051 15.393 68.3654 15.393C68.1007 15.393 67.887 15.4878 67.721 15.6783C67.5567 15.8687 67.4733 16.0933 67.4733 16.3502V18.6756H66.5811V15.8762C66.5811 15.5319 66.5701 15.1585 66.5488 14.7543H67.3328L67.3745 15.3672H67.3992C67.5031 15.1768 67.658 15.0196 67.8615 14.894C68.1032 14.7476 68.3739 14.6736 68.6702 14.6736C69.0447 14.6736 69.3563 14.7917 69.604 15.0287C69.9122 15.319 70.0663 15.7523 70.0663 16.3278V18.6764Z" fill="#1F212B"/>
<path d="M72.5261 18.6764H71.6352V12.957H72.5261V18.6764Z" fill="#1F212B"/>
<path d="M77.7788 16.6838C77.7788 17.2868 77.6025 17.7808 77.2501 18.1684C76.8807 18.5667 76.3903 18.7655 75.7799 18.7655C75.19 18.7655 74.7209 18.575 74.3719 18.1925C74.0229 17.8107 73.8484 17.3292 73.8484 16.7487C73.8484 16.1416 74.028 15.6434 74.3889 15.2567C74.7499 14.87 75.2351 14.6762 75.8455 14.6762C76.4354 14.6762 76.9079 14.8667 77.2671 15.2484C77.6077 15.6193 77.7788 16.0984 77.7788 16.6838ZM76.8526 16.7121C76.8526 16.3503 76.7725 16.0401 76.6134 15.7815C76.4269 15.4688 76.1596 15.3124 75.814 15.3124C75.4548 15.3124 75.1823 15.4688 74.9959 15.7815C74.8359 16.0401 74.7567 16.3553 74.7567 16.7279C74.7567 17.0897 74.8367 17.3999 74.9959 17.6585C75.1892 17.9713 75.4582 18.1276 75.8055 18.1276C76.146 18.1276 76.4124 17.9688 76.6048 17.6502C76.7708 17.3866 76.8526 17.0739 76.8526 16.7121Z" fill="#1F212B"/>
<path d="M82.0966 18.6765H81.2955L81.2291 18.2249H81.2044C80.9303 18.585 80.5396 18.7655 80.0322 18.7655C79.6534 18.7655 79.3469 18.6466 79.1162 18.4104C78.9068 18.1958 78.8021 17.9288 78.8021 17.612C78.8021 17.1329 79.0064 16.7678 79.4176 16.515C79.8279 16.2622 80.4051 16.1383 81.1483 16.1441V16.0709C81.1483 15.5544 80.8707 15.2966 80.3149 15.2966C79.919 15.2966 79.57 15.3939 79.2686 15.5869L79.0873 15.0147C79.4602 14.7893 79.9207 14.6762 80.4638 14.6762C81.5126 14.6762 82.0387 15.2168 82.0387 16.298V17.7417C82.0387 18.1334 82.0583 18.4453 82.0966 18.6765ZM81.1704 17.3292V16.7246C80.1863 16.708 79.6943 16.9716 79.6943 17.5147C79.6943 17.7193 79.7505 17.8723 79.8654 17.9746C79.9803 18.0769 80.1267 18.1276 80.3012 18.1276C80.497 18.1276 80.6801 18.0669 80.8469 17.9463C81.0146 17.8249 81.1176 17.671 81.1559 17.4822C81.1653 17.4398 81.1704 17.3883 81.1704 17.3292Z" fill="#1F212B"/>
<path d="M87.1662 18.6764H86.3745L86.3328 18.0468H86.3081C86.0553 18.5258 85.6245 18.7653 85.0193 18.7653C84.5357 18.7653 84.1331 18.5799 83.8138 18.209C83.4946 17.838 83.3354 17.3565 83.3354 16.7652C83.3354 16.1306 83.5082 15.6167 83.8556 15.2241C84.1918 14.8582 84.6038 14.6752 85.0942 14.6752C85.633 14.6752 86.0102 14.8524 86.2247 15.2075H86.2417V12.957H87.1347V17.6202C87.1347 18.0019 87.1449 18.3537 87.1662 18.6764ZM86.2417 17.023V16.3693C86.2417 16.2562 86.2332 16.1647 86.217 16.0949C86.1668 15.8853 86.0587 15.709 85.8944 15.5668C85.7284 15.4246 85.5283 15.353 85.2976 15.353C84.9648 15.353 84.7043 15.482 84.5127 15.7406C84.3229 15.9992 84.2267 16.3294 84.2267 16.7328C84.2267 17.1203 84.3178 17.4347 84.5008 17.6767C84.6941 17.9345 84.9546 18.0634 85.2806 18.0634C85.5735 18.0634 85.8076 17.9561 85.9855 17.7407C86.1574 17.542 86.2417 17.3025 86.2417 17.023Z" fill="#1F212B"/>
<path d="M94.7962 16.6838C94.7962 17.2868 94.62 17.7808 94.2676 18.1684C93.8981 18.5667 93.4095 18.7655 92.7974 18.7655C92.2092 18.7655 91.7401 18.575 91.3894 18.1925C91.0404 17.8107 90.8658 17.3292 90.8658 16.7487C90.8658 16.1416 91.0455 15.6434 91.4064 15.2567C91.7674 14.87 92.2526 14.6762 92.8647 14.6762C93.4529 14.6762 93.9271 14.8667 94.2846 15.2484C94.6251 15.6193 94.7962 16.0984 94.7962 16.6838ZM93.8717 16.7121C93.8717 16.3503 93.7917 16.0401 93.6325 15.7815C93.4444 15.4688 93.1788 15.3124 92.8315 15.3124C92.4739 15.3124 92.2015 15.4688 92.0134 15.7815C91.8533 16.0401 91.7742 16.3553 91.7742 16.7279C91.7742 17.0897 91.8542 17.3999 92.0134 17.6585C92.2066 17.9713 92.4756 18.1276 92.823 18.1276C93.1635 18.1276 93.4316 17.9688 93.624 17.6502C93.7883 17.3866 93.8717 17.0739 93.8717 16.7121Z" fill="#1F212B"/>
<path d="M99.5931 18.6764H98.7018V16.4309C98.7018 15.739 98.4328 15.393 97.8922 15.393C97.6275 15.393 97.4138 15.4878 97.2486 15.6783C97.0835 15.8687 97.0009 16.0933 97.0009 16.3502V18.6756H96.1079V15.8762C96.1079 15.5319 96.0977 15.1585 96.0764 14.7543H96.8596L96.9013 15.3672H96.926C97.0307 15.1768 97.1856 15.0196 97.3882 14.894C97.6309 14.7476 97.9007 14.6736 98.1978 14.6736C98.5715 14.6736 98.8831 14.7917 99.1308 15.0287C99.4398 15.319 99.5931 15.7523 99.5931 16.3278V18.6764Z" fill="#1F212B"/>
<path d="M105.597 15.4088H104.615V17.3133C104.615 17.7973 104.789 18.0393 105.135 18.0393C105.295 18.0393 105.428 18.026 105.533 17.9986L105.556 18.6598C105.379 18.7246 105.148 18.7571 104.863 18.7571C104.51 18.7571 104.236 18.6523 104.038 18.4427C103.839 18.2331 103.74 17.8805 103.74 17.3857V15.4088H103.153V14.7559H103.74V14.0374L104.614 13.7796V14.7551H105.596L105.597 15.4088Z" fill="#1F212B"/>
<path d="M110.32 18.6764H109.427V16.4475C109.427 15.7448 109.158 15.393 108.619 15.393C108.206 15.393 107.923 15.5967 107.768 16.0042C107.742 16.0899 107.726 16.1947 107.726 16.3178V18.6755H106.835V12.957H107.726V15.3198H107.743C108.024 14.8898 108.427 14.6752 108.949 14.6752C109.318 14.6752 109.624 14.7933 109.866 15.0304C110.169 15.3256 110.32 15.7647 110.32 16.3452V18.6764Z" fill="#1F212B"/>
<path d="M115.192 16.5309C115.192 16.6872 115.18 16.8186 115.159 16.9259H112.483C112.495 17.3135 112.623 17.6087 112.871 17.8133C113.097 17.9963 113.389 18.0878 113.747 18.0878C114.143 18.0878 114.503 18.0262 114.829 17.9023L114.968 18.5077C114.588 18.6691 114.14 18.7498 113.622 18.7498C113 18.7498 112.511 18.571 112.156 18.2133C111.801 17.8557 111.624 17.3759 111.624 16.7737C111.624 16.1824 111.789 15.6901 112.12 15.2975C112.465 14.8784 112.933 14.6688 113.523 14.6688C114.1 14.6688 114.538 14.8784 114.835 15.2975C115.074 15.6302 115.192 16.0419 115.192 16.5309ZM114.341 16.3055C114.348 16.0469 114.289 15.824 114.168 15.636C114.013 15.394 113.777 15.2726 113.458 15.2726C113.167 15.2726 112.929 15.3907 112.748 15.6277C112.6 15.8165 112.512 16.0419 112.483 16.3055H114.341Z" fill="#1F212B"/>
<rect x="0.5" y="1.45703" width="131" height="47" rx="7.5" stroke="black"/>
</svg>
