<svg width="129" height="129" viewBox="0 0 129 129" fill="none" xmlns="http://www.w3.org/2000/svg">
<path d="M128.25 64.75C128.25 100.096 99.5962 128.75 64.25 128.75C28.9038 128.75 0.25 100.096 0.25 64.75C0.25 29.4038 28.9038 0.75 64.25 0.75C99.5962 0.75 128.25 29.4038 128.25 64.75Z" fill="white"/>
<path fill-rule="evenodd" clip-rule="evenodd" d="M64.25 1C29.0418 1 0.5 29.5418 0.5 64.75C0.5 99.9582 29.0418 128.5 64.25 128.5C99.4582 128.5 128 99.9582 128 64.75C128 29.5418 99.4582 1 64.25 1ZM0 64.75C0 29.2657 28.7657 0.5 64.25 0.5C99.7343 0.5 128.5 29.2657 128.5 64.75C128.5 100.234 99.7343 129 64.25 129C28.7657 129 0 100.234 0 64.75Z" fill="#363B4A"/>
<path d="M118.917 64.7507C118.917 94.9422 94.4422 119.417 64.2507 119.417C34.0591 119.417 9.58398 94.9422 9.58398 64.7507C9.58398 34.5591 34.0591 10.084 64.2507 10.084C94.4422 10.084 118.917 34.5591 118.917 64.7507Z" fill="#F8F9FB"/>
<path fill-rule="evenodd" clip-rule="evenodd" d="M64.2507 10.334C34.1972 10.334 9.83398 34.6972 9.83398 64.7507C9.83398 94.8041 34.1972 119.167 64.2507 119.167C94.3041 119.167 118.667 94.8041 118.667 64.7507C118.667 34.6972 94.3041 10.334 64.2507 10.334ZM9.33398 64.7507C9.33398 34.421 33.921 9.83398 64.2507 9.83398C94.5803 9.83398 119.167 34.421 119.167 64.7507C119.167 95.0803 94.5803 119.667 64.2507 119.667C33.921 119.667 9.33398 95.0803 9.33398 64.7507Z" fill="#C3C8D9"/>
<path d="M25.584 41.416C25.584 39.2069 27.3748 37.416 29.584 37.416H98.9173C101.126 37.416 102.917 39.2069 102.917 41.416V87.8358C102.917 90.0449 101.126 91.8358 98.9173 91.8358H29.584C27.3749 91.8358 25.584 90.0449 25.584 87.8358V41.416Z" fill="#DFE2EB"/>
<path fill-rule="evenodd" clip-rule="evenodd" d="M98.9173 37.916H29.584C27.651 37.916 26.084 39.483 26.084 41.416V87.8358C26.084 89.7688 27.651 91.3358 29.584 91.3358H98.9173C100.85 91.3358 102.417 89.7688 102.417 87.8358V41.416C102.417 39.483 100.85 37.916 98.9173 37.916ZM29.584 37.416C27.3748 37.416 25.584 39.2069 25.584 41.416V87.8358C25.584 90.0449 27.3749 91.8358 29.584 91.8358H98.9173C101.126 91.8358 102.917 90.0449 102.917 87.8358V41.416C102.917 39.2069 101.126 37.416 98.9173 37.416H29.584Z" fill="#363B4A"/>
<path d="M37.0396 91.3346H32.1681C30.6115 91.3346 29.1186 90.7414 28.0179 89.6855C26.9172 88.6296 26.2988 87.1975 26.2988 85.7042V43.4761C26.2988 41.9828 26.9172 40.5507 28.0179 39.4948C29.1186 38.4389 30.6115 37.8457 32.1681 37.8457H32.8284V85.8379C32.832 86.6278 33.0121 87.4078 33.3566 88.1253C33.7189 88.8638 34.2329 89.5245 34.8679 90.0678C35.5076 90.6105 36.2429 91.0395 37.0396 91.3346Z" fill="white"/>
<path d="M96.3626 37.6322C97.892 37.6322 99.3589 38.2358 100.44 39.3103C101.522 40.3847 102.129 41.8419 102.129 43.3614L102.129 85.6139C102.125 86.5693 101.877 87.508 101.409 88.3424C101.412 88.3479 101.413 88.3541 101.413 88.3604C101.413 88.3666 101.412 88.3728 101.409 88.3783C101.192 88.7693 100.93 89.1345 100.63 89.4668L100.435 89.6673C99.3553 90.7353 97.8937 91.3352 96.3698 91.3359L91.3887 91.3359C92.5236 91.1795 93.6027 90.7492 94.5316 90.0827C95.0707 89.7211 95.5162 89.2382 95.8319 88.6732C96.1475 88.1082 96.3244 87.4771 96.3481 86.8314L96.3626 37.6322Z" fill="#A2AAC5"/>
<path d="M100.934 38.7407L91.024 48.6365L76.4309 63.1866L73.9749 65.6642C71.3685 68.2706 68.4112 71.0345 64.7593 71.1992C60.6779 71.3782 57.2623 68.2563 54.348 65.342L52.2714 63.2654L27.7324 38.7336C28.763 37.8796 30.0601 37.4134 31.3986 37.416H97.2751C98.6128 37.4128 99.9086 37.8819 100.934 38.7407Z" fill="#F8F9FB"/>
<path fill-rule="evenodd" clip-rule="evenodd" d="M76.4309 63.1866L100.934 38.7407C100.805 38.6323 100.671 38.5301 100.533 38.4343C99.5808 37.7711 98.4439 37.4132 97.2751 37.416H31.3986C30.2291 37.4137 29.0911 37.7694 28.1349 38.4289C27.9968 38.5242 27.8625 38.6258 27.7324 38.7336L54.348 65.342C57.2623 68.2563 60.6779 71.3782 64.7593 71.1992C68.4112 71.0345 71.3685 68.2706 73.9749 65.6642L76.4309 63.1866ZM73.6207 65.3113C73.6209 65.3111 73.6211 65.3108 73.6213 65.3106L76.0779 62.8326L90.6707 48.2827L100.173 38.7938C99.3201 38.2215 98.312 37.9136 97.2763 37.916L97.2751 37.916L31.3976 37.916C30.3611 37.914 29.3517 38.22 28.495 38.7889L52.6249 62.9118L54.7015 64.9884C56.1577 66.4446 57.708 67.9201 59.3883 69.0113C61.0647 70.0999 62.8362 70.7831 64.7374 70.6997C66.4395 70.6228 68.0024 69.9399 69.4775 68.9342C70.956 67.9262 72.3175 66.6145 73.6207 65.3113Z" fill="#363B4A"/>
<path fill-rule="evenodd" clip-rule="evenodd" d="M47.5312 48.873C47.5312 48.735 47.6432 48.623 47.7812 48.623H73.559C73.6971 48.623 73.809 48.735 73.809 48.873C73.809 49.0111 73.6971 49.123 73.559 49.123H47.7812C47.6432 49.123 47.5312 49.0111 47.5312 48.873Z" fill="#363B4A"/>
<path fill-rule="evenodd" clip-rule="evenodd" d="M52.543 56.0332C52.543 55.8951 52.6549 55.7832 52.793 55.7832H69.9782C70.1162 55.7832 70.2282 55.8951 70.2282 56.0332C70.2282 56.1713 70.1162 56.2832 69.9782 56.2832H52.793C52.6549 56.2832 52.543 56.1713 52.543 56.0332Z" fill="#363B4A"/>
<path d="M102.085 88.9005C101.583 89.7715 100.859 90.4948 99.9882 90.9976C99.1171 91.5004 98.129 91.7649 97.1233 91.7647H31.2467C30.2469 91.7661 29.2641 91.5057 28.3961 91.0095C27.528 90.5133 26.805 89.7986 26.2988 88.9363C26.4715 88.5825 26.7152 88.268 27.0149 88.0126L52.1196 63.1944L52.2485 63.0655C52.4811 62.7792 52.8001 62.5757 53.1578 62.4855C53.3996 62.4845 53.6386 62.5358 53.8586 62.6359C54.0786 62.736 54.2744 62.8826 54.4324 63.0655C56.4016 64.8341 58.0127 67.0753 60.3613 68.2998C61.6942 68.9809 63.184 69.2961 64.6785 69.213C66.173 69.13 67.6187 68.6518 68.868 67.8272C70.0265 66.9586 71.0919 65.9723 72.0472 64.8842C72.7633 64.1682 74.267 62.2563 75.3912 62.4998C75.7426 62.6221 76.0526 62.8404 76.2862 63.1299C76.6013 63.4593 76.8877 63.8459 77.1097 64.0536L79.2077 66.1302L83.2462 70.1185L99.3932 86.0721L101.491 88.1487C101.729 88.3653 101.93 88.6193 102.085 88.9005Z" fill="#DFE2EB"/>
<path fill-rule="evenodd" clip-rule="evenodd" d="M31.2461 91.2647L31.2467 91.2647H97.1234C98.0414 91.2649 98.9432 91.0234 99.7383 90.5645C100.447 90.1552 101.049 89.5858 101.497 88.9034C101.397 88.7636 101.282 88.6344 101.154 88.5182L101.147 88.5113L82.8949 70.4743L76.7626 64.4136C76.6277 64.2865 76.483 64.116 76.3513 63.9606L76.3285 63.9336C76.1946 63.7754 76.062 63.6189 75.9249 63.4755L75.9103 63.4603L75.8971 63.4439C75.7294 63.236 75.509 63.0771 75.2592 62.9837C75.1362 62.9653 74.9613 62.994 74.7199 63.1156C74.4648 63.244 74.186 63.4509 73.8978 63.7064C73.5074 64.0524 73.1641 64.4237 72.859 64.7538C72.7002 64.9255 72.5518 65.0861 72.4124 65.2261C71.437 66.3354 70.3498 67.3411 69.1679 68.2272L69.1559 68.2362L69.1434 68.2445C67.8203 69.1178 66.2891 69.6243 64.7062 69.7123C63.1233 69.8002 61.5455 69.4664 60.1338 68.745L60.1301 68.7432C58.8888 68.096 57.8564 67.1875 56.9025 66.2418C56.5487 65.891 56.2109 65.5409 55.8774 65.1953C55.292 64.5886 54.7199 63.9958 54.0983 63.4375L54.0748 63.4163L54.0541 63.3924C53.9432 63.2641 53.8059 63.1613 53.6515 63.091C53.5157 63.0292 53.3696 62.9939 53.221 62.9868C52.9919 63.0571 52.7882 63.1941 52.6365 63.3808L52.6202 63.4008L52.4711 63.5499L27.3533 88.3812L27.3392 88.3931C27.16 88.5459 27.005 88.7243 26.879 88.922C27.3294 89.6025 27.9336 90.1692 28.6442 90.5755C29.4365 91.0283 30.3335 91.266 31.2461 91.2647ZM26.2988 88.9363C26.4715 88.5825 26.7152 88.268 27.0149 88.0126L52.1196 63.1944L52.2485 63.0655C52.4811 62.7792 52.8001 62.5757 53.1578 62.4855C53.3996 62.4845 53.6386 62.5358 53.8586 62.6359C54.0786 62.736 54.2744 62.8826 54.4324 63.0655C55.0653 63.6339 55.6612 64.2512 56.2565 64.8679C57.5134 66.1698 58.7675 67.4689 60.3613 68.2998C61.6942 68.9809 63.184 69.2961 64.6785 69.213C66.173 69.13 67.6187 68.6518 68.868 67.8272C70.0265 66.9586 71.0919 65.9723 72.0472 64.8842C72.1655 64.7659 72.3053 64.615 72.4613 64.4466C73.2497 63.5954 74.4527 62.2965 75.3912 62.4998C75.7426 62.6221 76.0526 62.8404 76.2862 63.1299C76.4342 63.2846 76.5759 63.4519 76.7075 63.6074C76.8561 63.783 76.992 63.9435 77.1097 64.0536L79.2077 66.1302L101.491 88.1487C101.729 88.3653 101.93 88.6193 102.085 88.9005C101.583 89.7715 100.859 90.4948 99.9882 90.9976C99.1171 91.5004 98.129 91.7649 97.1233 91.7647H31.2467C30.2469 91.7661 29.2641 91.5057 28.3961 91.0095C27.528 90.5133 26.805 89.7986 26.2988 88.9363Z" fill="#363B4A"/>
<path d="M87.7745 57.3177C86.6622 57.3177 85.5748 56.9861 84.6499 56.3648C83.725 55.7436 83.0042 54.8605 82.5785 53.8274C82.1528 52.7943 82.0415 51.6575 82.2585 50.5607C82.4755 49.4639 83.0111 48.4565 83.7977 47.6658C84.5842 46.8751 85.5863 46.3366 86.6773 46.1184C87.7683 45.9002 88.8991 46.0122 89.9268 46.4402C90.9544 46.8681 91.8328 47.5928 92.4508 48.5226C93.0688 49.4523 93.3986 50.5455 93.3986 51.6637C93.3966 53.1626 92.8035 54.5996 91.7492 55.6595C90.6949 56.7194 89.2655 57.3157 87.7745 57.3177Z" fill="#31ABFF"/>
<path fill-rule="evenodd" clip-rule="evenodd" d="M89.8307 46.6709C88.8488 46.2621 87.7685 46.1551 86.7263 46.3636C85.6841 46.572 84.7266 47.0864 83.9749 47.8421C83.2232 48.5978 82.7112 49.5607 82.5037 50.6092C82.2962 51.6577 82.4027 52.7446 82.8097 53.7322C83.2166 54.7198 83.9056 55.5637 84.7893 56.1573C85.673 56.7509 86.7117 57.0676 87.7742 57.0677C89.1986 57.0658 90.5643 56.4961 91.5719 55.4832C92.5796 54.4702 93.1467 53.0965 93.1486 51.6634C93.1486 50.5944 92.8332 49.5496 92.2426 48.6609C91.6519 47.7722 90.8125 47.0798 89.8307 46.6709ZM86.6283 45.8733C87.768 45.6454 88.9493 45.7623 90.0229 46.2094C91.0964 46.6564 92.0137 47.4133 92.659 48.3842C93.3043 49.355 93.6486 50.4963 93.6486 51.6637V51.6641C93.6466 53.2287 93.0274 54.729 91.9264 55.8358C90.8254 56.9426 89.3325 57.5656 87.7748 57.5677H87.7745C86.6124 57.5677 85.4765 57.2213 84.5105 56.5723C83.5445 55.9235 82.7918 55.0013 82.3474 53.9226C81.9029 52.844 81.7867 51.6572 82.0132 50.5122C82.2398 49.3672 82.799 48.3152 83.6204 47.4895C84.4418 46.6637 85.4886 46.1012 86.6283 45.8733Z" fill="#363B4A"/>
</svg>
