<svg width="132" height="49" viewBox="0 0 132 49" fill="none" xmlns="http://www.w3.org/2000/svg">
<rect x="0.5" y="1.45703" width="131" height="47" rx="7.5" fill="white"/>
<path fill-rule="evenodd" clip-rule="evenodd" d="M32.8136 13.957H23.1909C18.658 13.957 17 15.6147 17 20.1467V29.7675C17 34.2995 18.658 35.957 23.1909 35.957H32.8105C37.3435 35.957 39.0044 34.2995 39.0044 29.7675V20.1467C39.0044 15.6147 37.3464 13.957 32.8136 13.957Z" fill="#C91C2E"/>
<path d="M26.6032 26.7162H27.4857L27.043 25.6871L26.6032 26.7162ZM26.3859 27.235L26.1242 27.8339H25.5282L26.7957 24.9592H27.3106L28.573 27.8339H27.961L27.7025 27.235H26.3859ZM35.9759 27.8319H36.552V24.9592H35.9759V27.8319ZM33.6835 26.5974H34.7451V26.0739H33.6835V25.4851H35.2245V24.9609H33.1078V27.8336H35.2801V27.3096H33.6835V26.5974ZM31.3949 26.9369L30.7417 24.959H30.2654L29.6123 26.9369L28.9767 24.9604H28.3555L29.3582 27.8352H29.8413L30.4955 25.9468L31.1493 27.8352H31.6369L32.6371 24.9604H32.0318L31.3949 26.9369ZM24.649 26.6054C24.649 27.0731 24.4167 27.3229 23.9949 27.3229C23.5707 27.3229 23.3373 27.066 23.3373 26.5855V24.9607H22.7536V26.6054C22.7536 27.4145 23.2032 27.8784 23.987 27.8784C24.7784 27.8784 25.2325 27.4057 25.2325 26.5816V24.959H24.649V26.6054ZM21.3609 24.9592H21.9443V27.8354H21.3609V26.6673H20.0427V27.8354H19.459V24.9592H20.0427V26.1195H21.3609V24.9592Z" fill="white"/>
<path d="M28.0025 21.2968C25.983 21.2968 24.3398 19.6539 24.3398 17.6348H24.8573C24.8573 19.3687 26.2681 20.7795 28.0025 20.7795C29.737 20.7795 31.1477 19.3687 31.1477 17.6348H31.6652C31.6652 19.6539 30.022 21.2968 28.0025 21.2968Z" fill="white"/>
<path d="M51.7885 14.8788V14.0614H47.4893V20.0358H51.7885V19.2183H48.3577V17.4008H51.4565V16.5833H48.3577V14.8788H51.7885ZM56.7416 20.0358L55.0645 17.7312L56.665 15.5398H55.7285L54.5962 17.0877L53.4725 15.5398H52.519L54.128 17.7399L52.4509 20.0358H53.3873L54.5962 18.3835L55.7966 20.0358H56.7416ZM60.0167 15.4354C59.3356 15.4354 58.7908 15.7659 58.4502 16.3137V15.5398H57.6159V21.5315H58.4502V19.2531C58.7908 19.8097 59.3356 20.1401 60.0167 20.1401C61.1745 20.1401 62.0429 19.1661 62.0429 17.7834C62.0429 16.4094 61.1745 15.4354 60.0167 15.4354ZM59.8124 19.3922C59.0206 19.3922 58.4502 18.7226 58.4502 17.7834C58.4502 16.8442 59.0206 16.1833 59.8124 16.1833C60.6211 16.1833 61.1915 16.8442 61.1915 17.7834C61.1915 18.7226 60.6211 19.3922 59.8124 19.3922ZM63.0602 20.0358H63.8945V13.957H63.0602V20.0358ZM67.2079 20.1401C68.4594 20.1401 69.515 19.0618 69.515 17.7834C69.515 16.5051 68.4594 15.4354 67.2079 15.4354C65.9479 15.4354 64.8838 16.5051 64.8838 17.7834C64.8838 19.0618 65.9479 20.1401 67.2079 20.1401ZM67.2079 19.3922C66.3991 19.3922 65.7266 18.6617 65.7266 17.7834C65.7266 16.9138 66.3991 16.1833 67.2079 16.1833C67.9996 16.1833 68.6722 16.9138 68.6722 17.7834C68.6722 18.6617 67.9996 19.3922 67.2079 19.3922ZM71.3871 16.4007V15.5398H70.5443V20.0358H71.3871V17.479C71.4637 16.6964 72.1107 16.1833 73.0217 16.1833V15.4354C72.264 15.4354 71.668 15.8093 71.3871 16.4007ZM75.8609 19.3748C75.1032 19.3748 74.5668 18.8357 74.4562 18.0878H77.9211C77.9211 16.479 77.1464 15.4354 75.8013 15.4354C74.5839 15.4354 73.6048 16.4268 73.6048 17.7747C73.6048 19.1574 74.6435 20.1401 75.8694 20.1401C76.4908 20.1401 77.257 19.8705 77.6487 19.4444L77.1208 18.8878C76.8569 19.1661 76.3206 19.3748 75.8609 19.3748ZM75.8353 16.2007C76.593 16.2007 77.0102 16.7051 77.1038 17.4008H74.4647C74.6009 16.6703 75.1543 16.2007 75.8353 16.2007ZM81.3681 20.0358H82.228V14.0614H81.3681V20.0358ZM85.5473 19.227C85.4537 19.3227 85.2834 19.3922 85.0961 19.3922C84.8492 19.3922 84.6449 19.1661 84.6449 18.8531V16.2702H85.6835V15.5398H84.6449V14.3049H83.8191V15.5398H83.1551V16.2702H83.8191V18.9139C83.8191 19.6357 84.2959 20.1401 84.9769 20.1401C85.2919 20.1401 85.6154 20.0184 85.8538 19.8184L85.5473 19.227ZM91.9843 20.1401C93.6273 20.1401 95.0065 18.7226 95.0065 17.0442C95.0065 15.3658 93.6273 13.957 91.9843 13.957C90.3412 13.957 88.945 15.3658 88.945 17.0442C88.945 18.7226 90.3412 20.1401 91.9843 20.1401ZM91.9843 19.3314C90.8179 19.3314 89.8304 18.2878 89.8304 17.0442C89.8304 15.8093 90.8179 14.7658 91.9843 14.7658C93.1506 14.7658 94.1296 15.8093 94.1296 17.0442C94.1296 18.2878 93.1506 19.3314 91.9843 19.3314ZM98.2722 15.4354C97.6763 15.4354 97.14 15.7485 96.876 16.192V15.5398H96.0332V20.0358H96.876V17.1225C96.9441 16.592 97.472 16.1833 98.0849 16.1833C98.6809 16.1833 99.098 16.6529 99.098 17.3225V20.0358H99.9238V17.1747C99.9238 16.1572 99.2427 15.4354 98.2722 15.4354Z" fill="#1F212B"/>
<path d="M53.6684 32.9723H55.6469L52.3097 24.6081H50.3431L47.0059 32.9723H48.9724L49.4969 31.6574H53.144L53.6684 32.9723ZM50.1047 30.1355L51.3204 27.0796L52.5361 30.1355H50.1047ZM60.3667 26.5318C59.5085 26.5318 58.7934 26.9092 58.3048 27.5544V26.6779H56.5646V35.0663H58.3048V32.0835C58.7934 32.7409 59.5085 33.1183 60.3667 33.1183C62.0115 33.1183 63.2033 31.7548 63.2033 29.819C63.2033 27.8953 62.0115 26.5318 60.3667 26.5318ZM59.8661 31.6208C59.0199 31.6208 58.4001 30.9877 58.3048 30.0625V29.5755C58.4001 28.6624 59.0199 28.0293 59.8661 28.0293C60.8315 28.0293 61.5109 28.7719 61.5109 29.819C61.5109 30.8782 60.8315 31.6208 59.8661 31.6208ZM68.2347 26.5318C67.3766 26.5318 66.6615 26.9092 66.1728 27.5544V26.6779H64.4327V35.0663H66.1728V32.0835C66.6615 32.7409 67.3766 33.1183 68.2347 33.1183C69.8795 33.1183 71.0714 31.7548 71.0714 29.819C71.0714 27.8953 69.8795 26.5318 68.2347 26.5318ZM67.7341 31.6208C66.8879 31.6208 66.2681 30.9877 66.1728 30.0625V29.5755C66.2681 28.6624 66.8879 28.0293 67.7341 28.0293C68.6995 28.0293 69.3789 28.7719 69.3789 29.819C69.3789 30.8782 68.6995 31.6208 67.7341 31.6208ZM79.4315 29.6729H81.3384V30.9512C80.8736 31.2921 80.3015 31.4869 79.7414 31.4869C78.3469 31.4869 77.1669 30.2451 77.1669 28.7841C77.1669 27.3353 78.3469 26.0935 79.7414 26.0935C80.4922 26.0935 81.2908 26.4587 81.7794 27.0309L83.0547 25.8621C82.2324 24.9855 80.969 24.462 79.7414 24.462C77.3695 24.462 75.3553 26.4344 75.3553 28.7841C75.3553 31.1338 77.3695 33.1183 79.7414 33.1183C80.969 33.1183 82.2324 32.5948 83.0547 31.7182V28.2728H79.4315V29.6729ZM87.2407 26.5318C86.3826 26.5318 85.5364 26.7752 84.6663 27.2257L85.2503 28.4067C85.739 28.151 86.2753 27.9562 86.8474 27.9562C87.8605 27.9562 88.2658 28.5406 88.2658 29.2102V29.332C87.7413 29.125 87.1931 29.0154 86.6925 29.0154C85.2622 29.0154 84.13 29.8677 84.13 31.1095C84.13 32.3148 85.1431 33.1183 86.4541 33.1183C87.1216 33.1183 87.8248 32.8505 88.2658 32.3392V32.9723H89.9463V29.2102C89.9463 27.5666 88.8498 26.5318 87.2407 26.5318ZM86.8474 31.8887C86.2515 31.8887 85.8105 31.5721 85.8105 31.0608C85.8105 30.5495 86.3111 30.172 86.9428 30.172C87.4195 30.172 87.8724 30.2573 88.2658 30.4034V30.9878C88.1466 31.5721 87.5149 31.8887 86.8474 31.8887ZM91.4123 32.9723H93.1524V24.462H91.4123V32.9723ZM94.6712 32.9723H96.4113V24.462H94.6712V32.9723ZM100.839 31.5478C100.112 31.5478 99.5757 31.0851 99.3731 30.4034H103.819C103.819 28.0293 102.686 26.5318 100.756 26.5318C98.956 26.5318 97.5853 27.9075 97.5853 29.8068C97.5853 31.7426 99.0155 33.1183 100.851 33.1183C101.757 33.1183 102.818 32.7288 103.366 32.1444L102.257 30.9878C101.924 31.3165 101.328 31.5478 100.839 31.5478ZM100.827 28.1023C101.53 28.1023 101.983 28.5041 102.15 29.125H99.3969C99.6234 28.4919 100.172 28.1023 100.827 28.1023ZM106.735 27.8466V26.6779H104.995V32.9723H106.735V29.9651C106.735 28.7841 107.558 28.0293 108.845 28.0293V26.5318C107.903 26.5318 107.141 27.0309 106.735 27.8466ZM111.256 35.1637C112.221 35.1637 113.008 34.5185 113.473 33.2888L116 26.6779H114.224L112.686 31.0973L111.065 26.6779H109.266L111.828 33.0331L111.614 33.4958C111.482 33.7271 111.22 33.8367 110.887 33.8367C110.684 33.8367 110.374 33.7271 110.076 33.5566L109.707 34.7741C110.124 35.0055 110.744 35.1637 111.256 35.1637Z" fill="#1F212B"/>
<rect x="0.5" y="1.45703" width="131" height="47" rx="7.5" stroke="black"/>
</svg>
