<svg width="132" height="49" viewBox="0 0 132 49" fill="none" xmlns="http://www.w3.org/2000/svg">
<rect x="0.5" y="1.45703" width="131" height="47" rx="7.5" fill="white"/>
<path d="M20.3319 16.2372C20.1257 16.4552 20.0039 16.7935 20.0039 17.2317V32.8854C20.0039 33.3242 20.1257 33.6618 20.3319 33.8798L20.3843 33.9308L29.1602 25.1619V25.0585V24.9552L20.3843 16.1855L20.3319 16.2372Z" fill="url(#paint0_linear_837_1579)"/>
<path d="M32.085 28.087L29.1602 25.1631V25.0598V24.9564L32.0857 22.0332L32.1516 22.0707L35.6176 24.0384C36.6072 24.6004 36.6072 25.5198 35.6176 26.0825L32.1516 28.0502L32.085 28.087Z" fill="url(#paint1_linear_837_1579)"/>
<path d="M32.1518 28.0483L29.1597 25.0586L20.332 33.8799C20.6579 34.2253 21.1969 34.2678 21.804 33.9238L32.1518 28.0483Z" fill="url(#paint2_linear_837_1579)"/>
<path d="M32.1518 22.0696L21.804 16.1949C21.1969 15.8502 20.6579 15.8934 20.332 16.2388L29.1604 25.0601L32.1518 22.0696Z" fill="url(#paint3_linear_837_1579)"/>
<path d="M52.7753 15.9369C52.7753 16.6734 52.5499 17.2632 52.1059 17.703C51.5954 18.2245 50.9304 18.4869 50.1156 18.4869C49.3369 18.4869 48.6719 18.2201 48.1265 17.6942C47.5799 17.1606 47.3072 16.5058 47.3072 15.7219C47.3072 14.9381 47.5799 14.2833 48.1265 13.7541C48.6719 13.2238 49.3369 12.957 50.1156 12.957C50.5033 12.957 50.873 13.0353 51.2257 13.1808C51.5773 13.3275 51.8636 13.5259 52.071 13.7706L51.5999 14.2359C51.2381 13.818 50.7456 13.6119 50.1156 13.6119C49.5476 13.6119 49.0551 13.8059 48.637 14.1973C48.2234 14.5897 48.016 15.098 48.016 15.7219C48.016 16.3459 48.2234 16.8586 48.637 17.251C49.0551 17.638 49.5476 17.8364 50.1156 17.8364C50.7186 17.8364 51.2257 17.638 51.6258 17.2466C51.8895 16.9875 52.0394 16.6304 52.0788 16.1739H50.1156V15.5367H52.7348C52.7663 15.6745 52.7753 15.8079 52.7753 15.9369Z" fill="#1F212B"/>
<path d="M56.9305 13.728H54.4703V15.4037H56.6882V16.0409H54.4703V17.7166H56.9305V18.3659H53.7738V13.0786H56.9305V13.728Z" fill="#1F212B"/>
<path d="M59.8632 18.3659H59.1668V13.728H57.6577V13.0786H61.3734V13.728H59.8632V18.3659Z" fill="#1F212B"/>
<path d="M64.0626 18.3659V13.0786H64.7577V18.3659H64.0626Z" fill="#1F212B"/>
<path d="M67.8402 18.3659H67.1494V13.728H65.6347V13.0786H69.3549V13.728H67.8402V18.3659Z" fill="#1F212B"/>
<path d="M76.3896 17.6854C75.8565 18.2201 75.1961 18.4869 74.4084 18.4869C73.6161 18.4869 72.9557 18.2201 72.4226 17.6854C71.8907 17.1518 71.6258 16.497 71.6258 15.7219C71.6258 14.9469 71.8907 14.2921 72.4226 13.7585C72.9557 13.2238 73.6161 12.957 74.4084 12.957C75.1916 12.957 75.852 13.2238 76.3851 13.7629C76.9216 14.3009 77.1864 14.9513 77.1864 15.7219C77.1864 16.497 76.9216 17.1518 76.3896 17.6854ZM72.9376 17.2422C73.3388 17.638 73.8268 17.8364 74.4084 17.8364C74.9854 17.8364 75.4779 17.638 75.8746 17.2422C76.2747 16.8464 76.4775 16.3382 76.4775 15.7219C76.4775 15.1057 76.2747 14.5975 75.8746 14.2017C75.4779 13.8059 74.9854 13.6075 74.4084 13.6075C73.8268 13.6075 73.3388 13.8059 72.9376 14.2017C72.5376 14.5975 72.3347 15.1057 72.3347 15.7219C72.3347 16.3382 72.5376 16.8464 72.9376 17.2422Z" fill="#1F212B"/>
<path d="M78.1639 18.3659V13.0786H79.0091L81.6373 17.1907H81.6677L81.6373 16.1743V13.0786H82.3326V18.3659H81.6069L78.8547 14.051H78.8243L78.8547 15.0718V18.3659H78.1639Z" fill="#1F212B"/>
<path d="M69.0693 27.1484C67.1584 27.1484 65.5974 28.5709 65.5974 30.5337C65.5974 32.4805 67.1584 33.9179 69.0693 33.9179C70.9843 33.9179 72.5454 32.4805 72.5454 30.5337C72.5454 28.5709 70.9843 27.1484 69.0693 27.1484ZM69.0693 32.5849C68.0208 32.5849 67.1188 31.7384 67.1188 30.5337C67.1188 29.3131 68.0208 28.4814 69.0693 28.4814C70.1178 28.4814 71.024 29.3131 71.024 30.5337C71.024 31.7384 70.1178 32.5849 69.0693 32.5849ZM61.4939 27.1484C59.5789 27.1484 58.0219 28.5709 58.0219 30.5337C58.0219 32.4805 59.5789 33.9179 61.4939 33.9179C63.4078 33.9179 64.9658 32.4805 64.9658 30.5337C64.9658 28.5709 63.4078 27.1484 61.4939 27.1484ZM61.4939 32.5849C60.4444 32.5849 59.5393 31.7384 59.5393 30.5337C59.5393 29.3131 60.4444 28.4814 61.4939 28.4814C62.5424 28.4814 63.4445 29.3131 63.4445 30.5337C63.4445 31.7384 62.5424 32.5849 61.4939 32.5849ZM52.4794 28.186V29.6244H55.991C55.8883 30.4282 55.6137 31.0191 55.1927 31.431C54.6802 31.9284 53.8818 32.4805 52.4794 32.4805C50.3184 32.4805 48.6261 30.7744 48.6261 28.6605C48.6261 26.5465 50.3184 24.8405 52.4794 24.8405C53.6479 24.8405 54.4981 25.2871 55.1256 25.8661L56.1619 24.8524C55.2842 24.0327 54.1168 23.403 52.4794 23.403C49.516 23.403 47.0254 25.7617 47.0254 28.6605C47.0254 31.5593 49.516 33.9179 52.4794 33.9179C54.0812 33.9179 55.2842 33.4046 56.23 32.4417C57.1992 31.4936 57.5013 30.1606 57.5013 29.0843C57.5013 28.75 57.4728 28.4426 57.4219 28.186H52.4794ZM89.3407 29.3011C89.0549 28.5441 88.1732 27.1484 86.3772 27.1484C84.5975 27.1484 83.1158 28.5202 83.1158 30.5337C83.1158 32.4297 84.5823 33.9179 86.5481 33.9179C88.1376 33.9179 89.0549 32.9699 89.4322 32.4178L88.2526 31.6488C87.859 32.2119 87.323 32.5849 86.5481 32.5849C85.7783 32.5849 85.226 32.2397 84.8721 31.5593L89.5004 29.6861L89.3407 29.3011ZM84.6219 30.4282C84.5823 29.1231 85.6582 28.4546 86.4291 28.4546C87.0332 28.4546 87.5458 28.75 87.7166 29.1728L84.6219 30.4282ZM80.8602 33.712H82.3815V23.7641H80.8602V33.712ZM78.3686 27.9024H78.3177C77.976 27.5065 77.3241 27.1484 76.4984 27.1484C74.7654 27.1484 73.181 28.6366 73.181 30.5446C73.181 32.4417 74.7654 33.9179 76.4984 33.9179C77.3241 33.9179 77.976 33.5568 78.3177 33.149H78.3686V33.6344C78.3686 34.9287 77.6618 35.624 76.5217 35.624C75.5922 35.624 75.0156 34.9675 74.7776 34.4153L73.4545 34.9555C73.8359 35.8528 74.8458 36.957 76.5217 36.957C78.3055 36.957 79.8106 35.9304 79.8106 33.4325V27.3543H78.3686V27.9024ZM76.6285 32.5849C75.58 32.5849 74.7024 31.7264 74.7024 30.5446C74.7024 29.3519 75.58 28.4814 76.6285 28.4814C77.6618 28.4814 78.4764 29.3519 78.4764 30.5446C78.4764 31.7264 77.6618 32.5849 76.6285 32.5849ZM96.4636 23.7641H92.8249V33.712H94.3422V29.9428H96.4636C98.1487 29.9428 99.8013 28.75 99.8013 26.8529C99.8013 24.9569 98.1447 23.7641 96.4636 23.7641ZM96.5033 28.559H94.3422V25.1479H96.5033C97.6362 25.1479 98.283 26.0681 98.283 26.8529C98.283 27.6229 97.6362 28.559 96.5033 28.559ZM105.883 27.1295C104.787 27.1295 103.647 27.603 103.178 28.6525L104.524 29.2046C104.814 28.6525 105.347 28.4735 105.91 28.4735C106.697 28.4735 107.496 28.936 107.508 29.7528V29.8572C107.233 29.702 106.646 29.4722 105.922 29.4722C104.472 29.4722 102.995 30.2531 102.995 31.7105C102.995 33.0435 104.182 33.902 105.518 33.902C106.539 33.902 107.102 33.4514 107.456 32.9271H107.508V33.6961H108.973V29.8801C108.973 28.1163 107.627 27.1295 105.883 27.1295ZM105.7 32.5809C105.203 32.5809 104.512 32.3402 104.512 31.7384C104.512 30.9684 105.374 30.6729 106.121 30.6729C106.789 30.6729 107.102 30.8172 107.508 31.0072C107.389 31.9284 106.578 32.5809 105.7 32.5809ZM114.313 27.3474L112.568 31.6598H112.517L110.713 27.3474H109.077L111.786 33.3738L110.241 36.7272H111.826L116.001 27.3474H114.313ZM100.635 33.712H102.157V23.7641H100.635V33.712Z" fill="#1F212B"/>
<rect x="0.5" y="1.45703" width="131" height="47" rx="7.5" stroke="black"/>
<defs>
<linearGradient id="paint0_linear_837_1579" x1="28.3823" y1="17.066" x2="16.504" y2="28.9538" gradientUnits="userSpaceOnUse">
<stop stop-color="#00A0FF"/>
<stop offset="0.0066" stop-color="#00A1FF"/>
<stop offset="0.2601" stop-color="#00BEFF"/>
<stop offset="0.5122" stop-color="#00D2FF"/>
<stop offset="0.7604" stop-color="#00DFFF"/>
<stop offset="1" stop-color="#00E3FF"/>
</linearGradient>
<linearGradient id="paint1_linear_837_1579" x1="36.9058" y1="25.0598" x2="19.7663" y2="25.0598" gradientUnits="userSpaceOnUse">
<stop stop-color="#FFE000"/>
<stop offset="0.4087" stop-color="#FFBD00"/>
<stop offset="0.7754" stop-color="#FFA500"/>
<stop offset="1" stop-color="#FF9C00"/>
</linearGradient>
<linearGradient id="paint2_linear_837_1579" x1="30.5269" y1="26.6822" x2="14.4184" y2="42.8035" gradientUnits="userSpaceOnUse">
<stop stop-color="#FF3A44"/>
<stop offset="1" stop-color="#C31162"/>
</linearGradient>
<linearGradient id="paint3_linear_837_1579" x1="18.1088" y1="11.0278" x2="25.3016" y2="18.2264" gradientUnits="userSpaceOnUse">
<stop stop-color="#32A071"/>
<stop offset="0.0685" stop-color="#2DA771"/>
<stop offset="0.4762" stop-color="#15CF74"/>
<stop offset="0.8009" stop-color="#06E775"/>
<stop offset="1" stop-color="#00F076"/>
</linearGradient>
</defs>
</svg>
