<svg width="24" height="24" viewBox="0 0 24 24" fill="none" xmlns="http://www.w3.org/2000/svg">
<path d="M4.17413 4.24993C2.7637 5.71496 3.05237 7.27123 3.05237 11.9991C3.05237 15.9253 2.36734 19.8612 5.95251 20.7878C7.07203 21.0757 16.9915 21.0757 18.1095 20.7863C19.6022 20.4011 20.8167 19.1904 20.9827 17.0792C21.0059 16.7846 21.0059 7.21888 20.982 6.91824C20.8055 4.66947 19.4212 3.37346 17.5972 3.11096C17.1792 3.05039 17.0954 3.03244 14.9506 3.0287C7.34275 3.03244 5.67506 2.69366 4.17413 4.24993Z" fill="url(#paint0_linear_996_1613)"/>
<path d="M12.0203 5.37749C9.30485 5.37749 6.72628 5.13594 5.74137 7.66365C5.33454 8.70764 5.39362 10.0635 5.39362 12.0049C5.39362 13.7085 5.33903 15.3096 5.74137 16.3454C6.72403 18.8746 9.32354 18.6323 12.0188 18.6323C14.619 18.6323 17.3001 18.903 18.2969 16.3454C18.7045 15.2909 18.6447 13.9553 18.6447 12.0049C18.6447 9.41585 18.7875 7.74442 17.5319 6.48954C16.2606 5.2182 14.5413 5.37749 12.0173 5.37749H12.0203ZM11.4265 6.5718C17.0907 6.56282 17.8116 5.93314 17.4137 14.6807C17.2724 17.7745 14.9167 17.435 12.021 17.435C6.74123 17.435 6.58942 17.2839 6.58942 12.0019C6.58942 6.65855 7.00822 6.57479 11.4265 6.5703V6.5718ZM15.5576 7.67188C15.3467 7.67188 15.1445 7.75563 14.9955 7.90472C14.8464 8.0538 14.7626 8.256 14.7626 8.46684C14.7626 8.67767 14.8464 8.87988 14.9955 9.02896C15.1445 9.17804 15.3467 9.2618 15.5576 9.2618C15.7684 9.2618 15.9706 9.17804 16.1197 9.02896C16.2688 8.87988 16.3525 8.67767 16.3525 8.46684C16.3525 8.256 16.2688 8.0538 16.1197 7.90472C15.9706 7.75563 15.7684 7.67188 15.5576 7.67188ZM12.0203 8.60145C11.5734 8.6015 11.1309 8.68957 10.718 8.86064C10.3051 9.0317 9.93002 9.28241 9.61405 9.59845C8.97592 10.2367 8.61748 11.1023 8.61758 12.0049C8.61768 12.9074 8.97631 13.773 9.61458 14.4111C10.2528 15.0492 11.1185 15.4077 12.021 15.4076C12.9236 15.4075 13.7891 15.0489 14.4272 14.4106C15.0654 13.7723 15.4238 12.9067 15.4237 12.0041C15.4236 11.1016 15.065 10.2361 14.4267 9.59792C13.7884 8.95979 12.9228 8.60135 12.0203 8.60145ZM12.0203 9.79576C14.9406 9.79576 14.9443 14.214 12.0203 14.214C9.10069 14.214 9.0962 9.79576 12.0203 9.79576Z" fill="white"/>
<defs>
<linearGradient id="paint0_linear_996_1613" x1="4.20855" y1="19.8306" x2="20.8896" y2="5.39337" gradientUnits="userSpaceOnUse">
<stop stop-color="#FFD54F"/>
<stop offset="0.338542" stop-color="#FF543E"/>
<stop offset="0.645833" stop-color="#E0447B"/>
<stop offset="1" stop-color="#6200EA"/>
</linearGradient>
</defs>
</svg>
