<svg width="18" height="18" viewBox="0 0 18 18" fill="none" xmlns="http://www.w3.org/2000/svg">
<path d="M8.58268 17.1243C3.87435 17.1243 0.0410156 13.291 0.0410156 8.58268C0.0410156 3.87435 3.87435 0.0410156 8.58268 0.0410156C13.291 0.0410156 17.1243 3.87435 17.1243 8.58268C17.1243 13.291 13.291 17.1243 8.58268 17.1243ZM8.58268 1.29102C4.55768 1.29102 1.29102 4.56602 1.29102 8.58268C1.29102 12.5993 4.55768 15.8743 8.58268 15.8743C12.6077 15.8743 15.8743 12.5993 15.8743 8.58268C15.8743 4.56602 12.6077 1.29102 8.58268 1.29102Z" fill="white"/>
<path d="M17.3327 17.9577C17.1743 17.9577 17.016 17.8994 16.891 17.7744L15.2243 16.1077C14.9827 15.866 14.9827 15.466 15.2243 15.2243C15.466 14.9827 15.866 14.9827 16.1077 15.2243L17.7744 16.891C18.016 17.1327 18.016 17.5327 17.7744 17.7744C17.6494 17.8994 17.491 17.9577 17.3327 17.9577Z" fill="white"/>
</svg>
