<svg width="19" height="15" viewBox="0 0 19 15" fill="none" xmlns="http://www.w3.org/2000/svg">
<path d="M18.9995 2.2145C18.338 2.5075 17.6265 2.703 16.876 2.7955C17.639 2.3425 18.226 1.62 18.5015 0.7665C17.7875 1.185 16.9965 1.4925 16.155 1.6545C15.483 0.942 14.5245 0.5 13.4625 0.5C11.4225 0.5 9.76905 2.139 9.76905 4.16C9.76905 4.446 9.80255 4.7245 9.86555 4.995C6.79655 4.841 4.07455 3.382 2.25355 1.168C1.93355 1.709 1.75355 2.3425 1.75355 3.011C1.75355 4.2815 2.40405 5.4 3.39605 6.059C2.79055 6.0405 2.22055 5.872 1.72155 5.602C1.72155 5.613 1.72155 5.6295 1.72155 5.645C1.72155 7.4205 2.99505 8.899 4.68305 9.2355C4.37455 9.32 4.04855 9.367 3.71255 9.367C3.47405 9.367 3.24155 9.34 3.01655 9.2995C3.48655 10.7505 4.85005 11.811 6.46555 11.8425C5.20155 12.8225 3.60955 13.4095 1.87855 13.4095C1.57955 13.4095 1.28705 13.3925 0.998047 13.3575C2.63355 14.393 4.57555 15 6.66005 15C13.4525 15 17.1685 9.422 17.1685 4.583C17.1685 4.4245 17.1635 4.2665 17.156 4.1105C17.881 3.5985 18.506 2.9525 18.9995 2.2145Z" fill="#03A9F4"/>
</svg>
